<mxfile host="app.diagrams.net" modified="2021-07-05T09:58:09.586Z" agent="5.0 (Windows NT 10.0; Win64; x64) AppleWebKit/537.36 (KHTML, like Gecko) Chrome/91.0.4472.124 Safari/537.36" etag="DClcHHXUTZfH_2JZfK8P" version="14.8.4" type="github">
  <diagram id="pqRgUTyDWCRC0H5EuuCh" name="Page-1">
    <mxGraphModel dx="782" dy="436" grid="1" gridSize="10" guides="1" tooltips="1" connect="1" arrows="1" fold="1" page="1" pageScale="1" pageWidth="850" pageHeight="1100" math="0" shadow="0">
      <root>
        <mxCell id="0" />
        <mxCell id="1" parent="0" />
        <mxCell id="Ssh3R9PuyrcEyvR6YeLk-1" value="&lt;font face=&quot;B Zar&quot; style=&quot;font-size: 13px&quot;&gt;کاربر&lt;/font&gt;" style="shape=umlActor;verticalLabelPosition=bottom;verticalAlign=top;html=1;outlineConnect=0;" vertex="1" parent="1">
          <mxGeometry x="110" y="170" width="30" height="60" as="geometry" />
        </mxCell>
        <mxCell id="Ssh3R9PuyrcEyvR6YeLk-2" value="&lt;font face=&quot;B Zar&quot; style=&quot;font-size: 13px&quot;&gt;سیستم&lt;br&gt;&amp;nbsp;(صفحه نمایش)&lt;/font&gt;" style="rounded=0;whiteSpace=wrap;html=1;fillColor=#BFBFBF;" vertex="1" parent="1">
          <mxGeometry x="370" y="170" width="110" height="60" as="geometry" />
        </mxCell>
        <mxCell id="Ssh3R9PuyrcEyvR6YeLk-3" value="&lt;span style=&quot;font-family: &amp;#34;b zar&amp;#34; ; font-size: 13px&quot;&gt;تاریخچه&lt;/span&gt;" style="rounded=0;whiteSpace=wrap;html=1;fillColor=#BFBFBF;" vertex="1" parent="1">
          <mxGeometry x="657" y="170" width="120" height="60" as="geometry" />
        </mxCell>
        <mxCell id="Ssh3R9PuyrcEyvR6YeLk-4" value="" style="endArrow=none;html=1;strokeColor=#28408E;" edge="1" parent="1">
          <mxGeometry width="50" height="50" relative="1" as="geometry">
            <mxPoint x="140" y="200" as="sourcePoint" />
            <mxPoint x="370" y="200" as="targetPoint" />
          </mxGeometry>
        </mxCell>
        <mxCell id="Ssh3R9PuyrcEyvR6YeLk-5" value="" style="endArrow=none;html=1;exitX=0;exitY=0.5;exitDx=0;exitDy=0;entryX=1;entryY=0.5;entryDx=0;entryDy=0;strokeColor=#28408E;" edge="1" parent="1" source="Ssh3R9PuyrcEyvR6YeLk-3" target="Ssh3R9PuyrcEyvR6YeLk-2">
          <mxGeometry width="50" height="50" relative="1" as="geometry">
            <mxPoint x="320" y="270" as="sourcePoint" />
            <mxPoint x="370" y="220" as="targetPoint" />
          </mxGeometry>
        </mxCell>
        <mxCell id="Ssh3R9PuyrcEyvR6YeLk-6" value="&lt;font face=&quot;Times New Roman&quot; style=&quot;font-size: 13px&quot;&gt;1: Give rating () -&amp;gt;&lt;/font&gt;" style="text;html=1;align=center;verticalAlign=middle;resizable=0;points=[];autosize=1;" vertex="1" parent="1">
          <mxGeometry x="183" y="171" width="110" height="20" as="geometry" />
        </mxCell>
        <mxCell id="Ssh3R9PuyrcEyvR6YeLk-7" value="&lt;span style=&quot;color: rgb(0 , 0 , 0) ; font-style: normal ; font-weight: normal ; letter-spacing: normal ; text-align: center ; text-indent: 0px ; text-transform: none ; word-spacing: 0px ; background-color: rgb(248 , 249 , 250) ; text-decoration: none ; display: inline ; float: none&quot;&gt;&lt;font style=&quot;font-size: 13px&quot; face=&quot;Times New Roman&quot;&gt;2: Save in DB () -&amp;gt;&lt;/font&gt;&lt;/span&gt;" style="text;whiteSpace=wrap;html=1;rotation=0;" vertex="1" parent="1">
          <mxGeometry x="503" y="171" width="170" height="30" as="geometry" />
        </mxCell>
      </root>
    </mxGraphModel>
  </diagram>
</mxfile>
